<?xml version="1.0" standalone="no"?>
<!DOCTYPE svg PUBLIC "-//W3C//DTD SVG 20010904//EN"
 "http://www.w3.org/TR/2001/REC-SVG-20010904/DTD/svg10.dtd">
<svg version="1.0" xmlns="http://www.w3.org/2000/svg"
 width="4000.000000pt" height="4000.000000pt" viewBox="0 0 4000.000000 4000.000000"
 preserveAspectRatio="xMidYMid meet">
<metadata>
Created by potrace 1.11, written by Peter Selinger 2001-2013
</metadata>
<g transform="translate(0.000000,4000.000000) scale(0.100000,-0.100000)"
fill="#000000" stroke="none">
<path d="M20872 38333 c-280 -296 -1047 -1051 -1209 -1191 -13 -10 -66 -59
-119 -108 -53 -49 -113 -102 -133 -119 -19 -16 -45 -39 -56 -50 -18 -17 -75
-67 -180 -157 -43 -37 -161 -136 -184 -154 -13 -10 -31 -26 -40 -34 -9 -8 -37
-31 -61 -50 -25 -19 -50 -39 -56 -45 -6 -5 -26 -21 -44 -35 -18 -14 -38 -30
-44 -35 -21 -20 -232 -182 -326 -251 -689 -509 -1319 -869 -1965 -1124 -206
-82 -523 -189 -632 -215 -10 -3 -88 -22 -173 -44 -85 -22 -168 -42 -185 -44
-16 -3 -66 -13 -110 -21 -110 -22 -114 -23 -165 -31 -25 -4 -52 -9 -60 -10 -8
-1 -42 -6 -75 -10 -32 -4 -66 -8 -75 -10 -15 -3 -116 -13 -200 -21 -274 -25
-802 -24 -1000 1 -19 2 -62 7 -95 10 -136 13 -331 40 -402 56 -23 5 -52 9 -64
9 -34 0 -189 82 -318 167 -182 121 -343 294 -406 437 -30 68 -54 141 -60 179
-2 18 -7 43 -10 57 -7 33 -7 185 0 235 11 69 13 78 34 160 99 383 436 884 966
1434 l90 94 -50 -29 c-383 -217 -1147 -748 -1585 -1101 -8 -7 -46 -37 -85 -68
-38 -31 -79 -64 -90 -73 -11 -9 -51 -43 -90 -75 -77 -65 -172 -146 -189 -162
-6 -5 -45 -39 -86 -75 -68 -59 -94 -82 -179 -159 -128 -116 -330 -311 -501
-482 -262 -262 -367 -373 -602 -639 -332 -376 -683 -822 -988 -1256 -203 -289
-573 -870 -667 -1048 -6 -10 -13 -15 -15 -10 -17 28 -120 421 -142 542 -3 12
-7 30 -10 40 -3 9 -8 33 -10 52 -3 19 -14 87 -25 150 -23 132 -27 162 -36 245
-4 33 -9 73 -10 88 -27 221 -27 855 0 1018 2 13 6 51 10 84 3 33 8 71 10 85 2
14 7 43 10 65 21 151 64 376 90 475 7 30 28 109 45 175 79 302 232 728 370
1031 17 36 29 68 27 71 -5 4 -98 -50 -194 -113 -28 -19 -54 -34 -58 -34 -4 0
-25 -13 -48 -29 -23 -15 -71 -47 -107 -70 -79 -49 -66 -41 -225 -148 -173
-116 -444 -311 -585 -423 -226 -178 -418 -341 -619 -524 -108 -99 -481 -475
-576 -580 -44 -49 -85 -94 -90 -100 -23 -24 -243 -284 -280 -331 -22 -27 -43
-52 -46 -55 -11 -10 -258 -339 -331 -440 -169 -236 -513 -767 -590 -910 -14
-26 -17 -28 -12 -10 10 42 182 540 214 623 10 26 17 47 16 47 -10 0 -473 -633
-685 -934 -241 -343 -573 -852 -708 -1084 -11 -20 -28 -48 -36 -62 -8 -14 -45
-79 -84 -145 -38 -66 -72 -127 -76 -135 -4 -8 -18 -33 -30 -55 -63 -110 -138
-252 -252 -475 -30 -58 -107 -220 -163 -340 -122 -262 -262 -608 -365 -900
-89 -250 -225 -705 -253 -843 -2 -10 -6 -27 -9 -37 -3 -10 -8 -27 -10 -37 -2
-10 -8 -38 -14 -63 -5 -25 -13 -60 -16 -79 -3 -19 -7 -37 -9 -40 -2 -3 -7 -23
-10 -43 -3 -21 -10 -57 -15 -80 -10 -42 -13 -59 -32 -168 -15 -84 -16 -92 -23
-140 -4 -25 -8 -52 -11 -60 -2 -8 -7 -44 -10 -80 -4 -36 -9 -73 -11 -84 -2
-10 -6 -44 -9 -75 -3 -31 -8 -67 -10 -81 -2 -14 -7 -59 -10 -100 -3 -41 -8
-97 -10 -125 -24 -278 -24 -801 0 -1090 9 -119 16 -190 20 -215 2 -14 6 -50
10 -80 11 -103 31 -251 45 -325 6 -27 19 -99 30 -160 32 -171 76 -360 125
-535 3 -8 9 -33 15 -55 64 -233 202 -632 285 -820 8 -16 35 -79 60 -140 149
-349 419 -848 644 -1190 36 -55 68 -104 71 -110 8 -15 84 -129 90 -135 3 -3
32 -43 65 -90 122 -176 300 -408 523 -680 39 -47 69 -86 68 -87 -1 -2 -140 28
-691 147 -132 28 -247 53 -255 55 -8 2 -78 17 -155 33 -77 17 -151 33 -165 36
-26 4 -70 14 -105 23 -52 13 523 -364 625 -410 8 -4 31 -17 50 -28 67 -41 216
-119 350 -185 74 -36 144 -70 154 -76 33 -18 246 -107 356 -149 58 -22 114
-44 125 -49 11 -5 63 -23 115 -41 52 -17 104 -35 115 -39 25 -11 115 -39 141
-45 10 -2 51 -13 89 -25 69 -20 292 -79 328 -86 10 -2 26 -5 35 -8 9 -3 28 -7
42 -10 62 -12 137 -27 160 -31 37 -8 120 -24 160 -30 19 -3 42 -8 50 -10 20
-5 87 -16 130 -20 19 -2 51 -7 70 -11 19 -4 49 -8 65 -10 17 -1 66 -7 110 -14
87 -12 123 -16 200 -25 28 -3 66 -8 85 -10 19 -3 60 -7 90 -10 111 -11 156
-16 180 -20 14 -2 54 -7 89 -10 35 -4 75 -8 90 -10 14 -1 51 -6 81 -9 30 -4
80 -11 110 -16 30 -5 75 -11 100 -14 53 -7 79 -12 174 -32 50 -10 80 -23 101
-43 75 -69 95 -85 170 -136 44 -29 97 -61 117 -71 l37 -17 -37 -46 c-20 -25
-39 -48 -42 -51 -3 -3 -86 -106 -184 -230 -99 -124 -182 -227 -185 -230 -5 -4
-117 -141 -188 -230 -27 -34 -191 -230 -247 -295 -33 -38 -67 -78 -76 -89 -18
-22 -17 -21 -115 -131 -86 -97 -154 -171 -280 -305 -90 -95 -405 -409 -487
-484 -29 -27 -78 -72 -108 -100 -54 -50 -171 -154 -219 -195 -13 -12 -55 -30
-92 -41 -101 -30 -219 -60 -258 -66 -18 -2 -36 -6 -40 -9 -4 -2 -30 -7 -57
-11 -27 -3 -58 -8 -69 -10 -38 -8 -200 -18 -280 -18 -202 1 -377 33 -580 108
-38 14 -72 26 -74 26 -10 0 -161 -155 -215 -220 -153 -187 -244 -358 -310
-583 l-24 -85 -134 -134 c-74 -73 -159 -162 -189 -198 -211 -248 -416 -541
-613 -875 -42 -71 -81 -137 -86 -145 -5 -8 -31 -55 -58 -105 -90 -164 -103
-186 -198 -325 -52 -76 -94 -142 -94 -146 0 -4 -8 -17 -19 -28 -10 -12 -31
-43 -46 -71 -15 -27 -35 -61 -44 -75 -67 -103 -257 -449 -376 -685 -173 -343
-318 -656 -470 -1015 -31 -74 -65 -153 -75 -175 -43 -96 -201 -486 -442 -1090
-142 -357 -263 -659 -268 -670 -5 -11 -47 -114 -94 -230 -89 -222 -217 -527
-309 -736 -32 -73 -55 -140 -55 -160 1 -52 -13 -340 -17 -374 -2 -16 -7 -57
-10 -90 -15 -144 -63 -296 -118 -378 l-19 -28 43 -37 c24 -20 135 -126 246
-235 238 -234 254 -249 358 -331 89 -71 198 -142 275 -181 55 -28 215 -95 240
-100 8 -2 40 -10 70 -19 199 -57 470 -80 584 -50 161 42 244 129 282 291 15
64 15 181 1 228 -13 41 -68 244 -93 340 -15 55 -38 136 -52 180 -14 44 -27 85
-28 90 -11 55 -123 297 -183 395 -115 185 -171 363 -166 521 2 62 15 110 80
299 42 124 110 324 151 445 99 295 288 849 309 905 9 25 18 52 20 60 7 29 229
647 246 685 5 11 28 74 53 140 308 835 705 1686 1086 2330 130 221 126 215
175 213 l42 -3 -3 -125 c-4 -141 -3 -145 79 -332 30 -68 60 -139 67 -158 13
-37 73 -162 93 -195 7 -11 27 -44 46 -75 91 -150 252 -344 486 -588 55 -57
135 -140 177 -184 l76 -80 79 -4 c96 -3 251 -12 358 -19 44 -3 122 -7 174 -10
l93 -4 92 88 c50 49 138 124 196 167 58 43 110 83 117 89 6 5 26 21 44 35 65
50 225 188 313 270 194 183 346 345 543 580 67 80 199 219 293 310 94 91 210
202 257 247 52 50 99 87 122 94 20 6 101 40 180 75 79 35 145 64 147 64 1 0 1
-10 -2 -23 -6 -29 -12 -63 -19 -107 -3 -19 -12 -57 -20 -85 -18 -61 -71 -279
-79 -320 -3 -16 -12 -66 -20 -110 -8 -44 -17 -98 -20 -120 -4 -22 -9 -51 -11
-65 -4 -27 -10 -78 -20 -175 -3 -33 -8 -73 -10 -90 -2 -16 -4 -42 -4 -56 -1
-15 -9 -30 -20 -35 -10 -5 -32 -19 -47 -32 -16 -12 -63 -48 -104 -80 -42 -31
-82 -63 -90 -70 -8 -6 -89 -71 -180 -143 -91 -72 -181 -143 -200 -159 -191
-154 -335 -268 -422 -335 -56 -44 -105 -82 -108 -85 -3 -3 -66 -50 -140 -104
-74 -55 -151 -111 -170 -125 -169 -125 -526 -354 -720 -461 -116 -64 -384
-193 -495 -238 -117 -47 -343 -124 -435 -147 -22 -5 -69 -16 -85 -19 -68 -14
-89 -39 -176 -206 -19 -36 -36 -67 -39 -70 -5 -5 -32 -59 -78 -160 -70 -150
-144 -355 -174 -475 -11 -48 -20 -179 -33 -498 -3 -86 -3 -87 19 -83 67 12
437 146 581 210 33 15 69 31 80 36 62 27 344 167 423 210 293 158 713 436
1007 664 106 82 228 179 235 186 3 3 30 25 60 50 30 25 57 47 60 50 3 3 23 20
45 39 333 282 676 613 1153 1114 30 32 56 56 57 55 2 -2 6 -39 10 -83 4 -44 9
-87 10 -95 2 -8 6 -44 10 -80 3 -36 8 -76 10 -90 2 -14 7 -45 10 -69 6 -47 13
-57 142 -206 49 -56 76 -80 94 -81 13 -1 105 -3 204 -5 l180 -3 165 96 c323
186 488 289 720 446 132 90 454 324 470 341 3 4 39 33 80 65 41 33 91 73 110
90 20 17 50 42 67 56 172 141 463 424 653 636 93 103 309 371 340 421 11 18
18 19 44 11 124 -38 582 -141 681 -153 28 -4 61 -8 75 -11 14 -2 84 -7 155
-10 72 -3 131 -7 133 -9 2 -2 -3 -14 -11 -27 -46 -71 -332 -634 -386 -758 -13
-30 -34 -78 -47 -107 -39 -85 -143 -332 -176 -418 -17 -44 -36 -93 -44 -110
-7 -16 -19 -48 -27 -70 -15 -43 -73 -200 -84 -225 -38 -95 -246 -718 -320
-957 -34 -114 -43 -132 -49 -100 -1 7 -9 30 -17 52 -13 34 -16 37 -22 20 -54
-142 -220 -489 -279 -583 -14 -23 -26 -44 -26 -46 0 -4 -15 -29 -125 -204 -22
-35 -57 -87 -77 -115 -20 -29 -46 -65 -58 -82 -21 -31 -118 -162 -132 -180 -5
-5 -31 -39 -60 -75 -60 -77 -109 -138 -123 -154 -6 -6 -46 -54 -90 -106 -44
-52 -89 -104 -100 -115 -11 -12 -36 -40 -56 -63 -33 -38 -155 -173 -219 -242
-162 -176 -234 -253 -280 -304 -76 -84 -180 -186 -280 -277 -47 -42 -97 -87
-111 -100 -14 -13 -67 -62 -118 -109 -51 -47 -108 -98 -126 -115 -17 -16 -83
-77 -146 -135 -62 -58 -138 -127 -167 -155 -30 -27 -70 -65 -91 -84 -20 -18
-90 -84 -156 -146 -66 -62 -136 -127 -155 -145 -49 -46 -272 -255 -335 -315
-29 -27 -115 -108 -190 -180 -76 -71 -157 -148 -180 -170 -244 -235 -445 -427
-469 -448 -24 -22 -299 -288 -546 -527 -76 -74 -574 -558 -755 -735 -66 -64
-338 -331 -604 -593 -939 -926 -923 -909 -1076 -1127 -147 -210 -341 -560
-482 -870 -18 -38 -50 -108 -71 -155 -94 -206 -140 -350 -159 -501 -9 -75 -11
-406 -2 -497 6 -61 18 -83 74 -137 6 -5 19 -21 28 -35 25 -36 139 -150 151
-150 5 0 17 -6 25 -13 20 -17 111 -45 176 -54 27 -3 86 -23 130 -43 80 -37
162 -67 207 -75 12 -3 34 -8 48 -11 43 -11 273 -13 325 -3 28 5 64 12 80 15
43 7 116 31 225 74 52 20 132 44 177 53 141 26 250 97 279 179 11 31 11 379 0
448 -2 14 -6 57 -10 95 -8 81 -16 150 -21 185 -2 14 -7 57 -11 95 -3 39 -8 79
-11 90 -2 11 -6 106 -8 210 -6 336 36 498 184 715 78 114 131 190 143 205 4 5
56 75 115 155 59 80 109 147 112 150 3 3 28 34 56 70 27 36 52 67 55 70 3 3
21 25 40 50 19 25 42 54 52 65 48 59 184 222 193 231 6 6 33 37 60 69 28 32
73 83 100 113 28 30 58 64 68 76 71 82 275 295 462 481 267 266 370 363 624
591 30 27 62 56 71 64 8 8 45 40 80 70 36 30 70 60 75 66 10 12 363 309 444
374 88 71 126 102 147 119 160 136 745 586 1296 997 190 143 536 401 768 574
232 173 425 315 428 315 4 1 41 17 82 37 115 55 308 147 378 179 71 33 146 68
287 134 55 26 174 81 265 122 91 41 197 90 235 108 39 18 95 44 125 58 30 14
96 44 145 67 117 55 179 83 185 85 3 1 63 29 133 63 71 34 130 62 132 62 12 0
611 296 835 413 227 118 391 207 559 304 144 83 166 94 143 71 -30 -30 -5 -24
76 18 277 146 694 433 1062 729 124 100 447 373 496 420 12 11 41 38 65 59 24
22 82 75 128 118 62 58 91 78 111 78 25 0 127 -79 226 -175 129 -125 322 -301
390 -355 70 -57 193 -145 269 -194 50 -31 89 -60 88 -64 -1 -4 -12 -9 -25 -12
-19 -5 -9 -14 65 -59 79 -48 334 -225 347 -241 7 -9 254 -197 335 -256 237
-170 462 -289 701 -369 100 -34 262 -78 327 -89 15 -3 35 -7 45 -10 9 -2 37
-7 62 -10 25 -3 56 -9 70 -12 14 -3 93 -7 175 -9 212 -5 2746 -26 4218 -35
l208 -1 -32 -37 c-36 -43 -288 -293 -369 -367 -464 -427 -978 -807 -2109
-1564 -327 -219 -401 -264 -435 -267 -22 -2 -54 -6 -71 -8 -16 -3 -64 -8 -105
-11 -41 -3 -86 -8 -100 -10 -14 -2 -58 -7 -99 -10 -41 -4 -83 -8 -93 -10 -10
-2 -55 -7 -99 -10 -45 -4 -90 -8 -100 -10 -10 -2 -53 -6 -96 -10 -136 -11
-151 -14 -243 -51 -278 -110 -422 -241 -602 -549 -36 -60 -82 -136 -104 -169
-21 -32 -47 -70 -56 -85 -10 -14 -15 -34 -12 -43 2 -9 7 -27 10 -40 6 -34 56
-301 58 -317 2 -7 9 -17 17 -21 33 -18 362 -34 684 -34 315 1 571 12 900 39
28 2 86 7 130 10 44 4 100 8 125 10 25 2 79 7 120 10 148 12 166 14 265 21 55
4 114 8 130 10 17 1 53 3 81 3 46 1 59 7 136 63 81 59 309 233 346 263 9 8 67
53 127 101 111 88 376 304 385 314 3 3 34 30 70 60 36 30 67 57 70 60 3 3 37
32 75 65 39 33 75 64 81 70 6 5 44 39 84 75 64 56 106 95 205 185 205 186 669
643 834 820 41 44 104 112 140 150 93 97 368 410 476 539 50 60 97 116 106
125 52 53 474 597 610 786 137 190 135 186 133 235 -4 64 -13 203 -19 285 -2
39 -7 115 -10 170 l-5 100 -53 53 c-67 70 -191 166 -292 229 -134 83 -260 138
-630 277 -66 24 -140 54 -164 65 -37 16 -48 17 -63 7 -18 -13 -120 20 -568
184 -58 21 -122 43 -143 50 -21 6 -37 16 -35 20 2 5 76 45 164 89 152 76 381
198 414 221 8 6 22 13 30 17 34 16 274 162 405 247 959 621 1725 1394 2108
2126 36 69 74 148 85 175 11 28 28 67 37 88 l16 38 -33 -5 c-18 -3 -123 -21
-233 -41 -225 -40 -248 -44 -290 -51 -16 -2 -52 -9 -80 -14 -27 -5 -68 -12
-90 -16 -22 -3 -47 -7 -55 -9 -8 -2 -30 -7 -47 -10 -18 -3 -48 -7 -65 -11 -25
-4 -7 11 72 59 58 35 139 85 180 111 41 26 84 53 95 59 10 7 62 39 115 73 52
33 221 141 375 238 154 98 298 190 320 204 22 15 52 33 66 42 14 8 110 67 213
130 204 126 202 124 331 200 149 88 207 121 265 153 30 16 60 33 65 37 6 4 35
21 65 37 30 17 105 57 165 90 313 171 682 356 1015 508 136 62 538 235 547
235 3 0 19 7 36 15 50 23 180 76 197 79 8 2 31 11 50 19 130 58 942 343 1030
362 8 2 42 13 75 24 117 38 661 195 750 216 11 2 92 23 180 45 88 23 167 43
175 45 8 2 74 17 145 35 150 36 374 86 425 95 19 3 53 11 75 17 22 5 51 12 65
15 14 2 102 19 195 38 147 29 355 68 435 81 14 3 36 7 50 9 54 11 76 15 115
20 22 3 47 8 55 10 8 2 33 7 55 10 23 3 52 8 65 10 14 3 70 12 125 20 55 8
114 17 130 20 69 11 92 15 130 20 22 3 46 8 53 10 17 6 17 6 -28 -195 -22 -98
-42 -191 -45 -205 -3 -14 -7 -37 -11 -52 -3 -15 -7 -30 -10 -34 -6 -10 626 0
1021 16 66 3 179 7 250 10 259 10 465 20 620 30 39 2 115 7 170 10 55 4 125 8
155 10 30 2 102 6 160 10 58 3 130 8 160 10 30 2 98 7 150 10 52 3 115 8 140
10 25 2 95 7 155 11 61 4 126 8 145 9 19 2 87 6 150 10 196 11 185 9 351 76
227 92 521 251 679 369 107 80 208 157 230 176 163 141 171 145 402 262 128
65 248 127 265 138 186 111 260 158 360 233 252 189 433 383 586 633 69 112
99 232 101 403 1 145 -3 174 -39 260 -29 69 -10 56 -300 204 -279 142 -401
191 -612 242 l-122 30 -70 -24 -69 -24 -17 38 c-18 39 -21 41 -175 111 -36 17
-94 44 -130 60 -36 17 -143 66 -239 110 -95 43 -181 83 -190 88 -18 9 -76 36
-246 113 -66 30 -156 71 -200 92 -115 54 -192 89 -255 118 -94 43 -180 82
-705 324 -280 130 -525 242 -543 250 -19 8 -73 32 -120 55 -48 22 -116 54
-152 70 -281 129 -692 318 -768 354 -52 24 -95 44 -97 44 -1 0 -49 22 -106 49
-57 26 -126 59 -154 71 -27 12 -92 42 -143 66 -51 24 -95 44 -97 44 -1 0 -60
27 -129 60 -70 33 -128 60 -130 60 -2 0 -55 24 -117 54 -63 29 -154 71 -204
94 -49 22 -130 59 -180 82 -49 23 -112 52 -140 65 -183 83 -158 63 -300 247
-71 93 -137 177 -145 186 -8 10 -51 65 -95 122 -44 58 -85 112 -92 120 -7 8
-26 33 -42 55 -17 22 -34 45 -38 50 -56 72 -79 102 -88 112 -5 6 -20 24 -31
40 -12 15 -118 152 -235 303 -117 151 -242 313 -278 360 -36 47 -71 92 -78
100 -100 124 -476 618 -477 627 -1 12 364 390 869 898 306 309 325 322 678
495 302 148 458 245 622 389 50 43 339 334 380 381 83 96 197 232 245 295 30
39 59 75 65 82 24 30 35 44 113 148 45 61 85 115 90 120 11 14 126 176 181
255 25 36 107 157 183 270 l139 205 -73 11 c-69 11 -116 17 -218 30 -25 3 -58
7 -75 9 -16 2 -64 6 -105 10 -41 3 -97 8 -125 10 -306 26 -1032 26 -1390 0
-33 -3 -96 -7 -140 -10 -127 -8 -228 -16 -260 -20 -16 -2 -66 -6 -110 -10 -44
-3 -96 -8 -115 -11 -19 -2 -57 -7 -85 -9 -27 -3 -68 -7 -90 -10 -22 -3 -65 -7
-95 -10 -30 -3 -71 -7 -90 -10 -19 -2 -60 -7 -90 -10 -30 -3 -72 -8 -92 -10
-90 -11 -125 -16 -158 -20 -19 -3 -54 -7 -77 -10 -101 -12 -128 -17 -133 -24
-4 -7 -56 -18 -200 -45 -8 -2 -26 -6 -40 -9 -14 -4 -86 -18 -160 -33 -74 -14
-144 -28 -155 -30 -11 -2 -45 -8 -75 -14 -71 -13 -90 -17 -180 -35 -107 -22
-121 -25 -155 -30 -16 -3 -97 -20 -180 -36 -82 -17 -161 -33 -175 -35 -14 -3
-104 -21 -200 -40 -96 -19 -186 -37 -200 -39 -29 -5 -276 -54 -305 -61 -11 -2
-58 -11 -105 -20 -47 -9 -94 -18 -105 -21 -11 -2 -31 -6 -45 -9 -14 -2 -59
-11 -100 -19 -41 -9 -86 -17 -100 -20 -21 -4 -82 -16 -100 -20 -3 -1 -25 -5
-50 -9 -25 -5 -52 -10 -60 -12 -8 -1 -94 -19 -190 -38 -97 -19 -187 -37 -200
-40 -14 -3 -50 -10 -80 -15 -30 -6 -66 -13 -80 -16 -14 -3 -38 -8 -55 -10 -16
-3 -37 -8 -45 -10 -8 -2 -31 -7 -50 -10 -19 -3 -98 -19 -175 -35 -77 -15 -153
-30 -170 -33 -16 -3 -69 -13 -118 -22 -48 -10 -89 -16 -92 -13 -2 2 0 35 5 73
6 39 15 102 20 140 6 39 13 95 16 125 3 30 10 73 14 94 5 22 6 44 3 49 -3 4 4
11 16 14 12 3 21 13 22 22 0 9 2 23 3 31 2 8 6 38 10 65 3 28 9 64 12 80 9 49
56 288 60 308 2 9 6 25 8 35 11 46 98 388 119 467 69 256 159 600 163 624 3
14 7 34 10 43 3 9 7 25 9 35 2 10 12 59 24 108 11 50 22 102 25 118 18 99 26
147 31 182 3 22 8 51 10 65 3 14 7 45 10 70 3 25 7 61 10 80 31 243 19 595
-30 830 -22 103 -15 94 -80 100 -110 10 -292 4 -430 -15 -289 -39 -595 -150
-875 -318 -83 -50 -270 -174 -280 -186 -3 -3 -39 -31 -80 -63 -41 -31 -85 -65
-96 -75 -12 -10 -48 -40 -80 -68 -32 -27 -81 -70 -108 -95 -80 -71 -451 -444
-561 -564 -55 -60 -105 -114 -110 -120 -16 -17 -295 -326 -330 -365 -16 -19
-43 -49 -60 -67 -150 -163 -191 -208 -194 -218 -4 -10 -143 -174 -203 -238
-15 -17 -43 -49 -60 -72 -18 -22 -38 -45 -44 -51 -47 -42 -709 -847 -923
-1124 -14 -19 -35 -46 -47 -60 -115 -142 -696 -913 -981 -1301 -157 -215 -549
-756 -610 -843 -26 -37 -53 -73 -58 -80 -6 -7 -18 -23 -28 -37 -22 -31 -60
-85 -92 -130 -14 -19 -36 -51 -50 -70 -13 -19 -64 -90 -112 -156 -49 -67 -149
-206 -223 -309 -74 -103 -163 -226 -198 -274 -35 -47 -86 -119 -114 -159 l-52
-72 -115 -36 c-449 -138 -1155 -393 -1546 -559 -44 -18 -125 -52 -180 -75 -55
-23 -128 -55 -163 -71 -35 -16 -65 -29 -67 -29 -2 0 -43 -18 -90 -40 -47 -22
-88 -40 -90 -40 -2 0 -43 -19 -92 -41 -48 -23 -119 -56 -158 -74 -246 -115
-390 -186 -725 -357 -258 -132 -333 -171 -435 -228 -27 -15 -86 -47 -130 -70
-44 -24 -146 -81 -228 -126 -81 -46 -149 -84 -152 -84 -3 0 -22 -11 -43 -24
-20 -13 -125 -74 -232 -136 -187 -109 -577 -343 -745 -447 -153 -95 -331 -207
-415 -261 -47 -30 -107 -69 -135 -87 -305 -195 -1017 -670 -1318 -880 -32 -22
-139 -97 -240 -167 -276 -192 -367 -256 -490 -343 -62 -44 -138 -98 -170 -120
-32 -22 -66 -46 -77 -53 -18 -13 -18 -12 -4 50 71 312 233 572 473 762 l64 50
-74 34 c-244 112 -655 258 -834 297 -5 1 -21 5 -35 8 -55 14 -156 37 -180 41
-14 2 -36 7 -50 10 -41 10 -181 32 -250 41 -25 3 -63 7 -85 10 -100 12 -127
15 -235 22 -198 13 -679 6 -772 -12 -11 -3 -52 -7 -90 -10 -38 -4 -77 -8 -87
-10 -23 -4 -94 -15 -136 -20 -16 -2 -30 -4 -30 -5 0 -1 -16 -3 -35 -6 -19 -2
-55 -8 -80 -14 -25 -5 -61 -12 -80 -15 -19 -3 -63 -12 -96 -20 -34 -8 -73 -16
-86 -19 -13 -2 -47 -11 -76 -19 -28 -9 -52 -14 -52 -12 0 2 -18 -2 -40 -10
-22 -8 -40 -10 -40 -5 0 4 4 10 9 12 6 2 40 32 78 68 59 56 176 162 278 251
26 23 151 129 224 191 61 52 349 273 461 355 213 155 776 525 925 607 11 7 39
24 62 39 24 15 45 27 49 27 3 0 18 8 32 19 28 19 397 232 492 284 30 16 69 38
85 47 17 10 50 29 75 42 25 14 74 41 110 60 60 33 96 52 248 133 83 45 320
169 452 238 63 33 244 124 401 203 287 144 287 144 425 261 77 64 141 120 144
123 3 3 52 46 110 95 58 50 114 99 126 110 11 11 36 33 55 50 28 25 197 176
235 210 373 339 833 801 1109 1115 60 69 112 127 115 130 50 44 436 546 545
710 28 41 53 77 56 80 3 3 9 12 12 20 4 8 20 35 36 60 313 484 520 1028 577
1515 3 22 7 56 9 75 26 210 22 581 -10 1140 -3 41 -4 174 -4 295 1 308 0 328
-19 299 -4 -6 -32 -39 -62 -74 -200 -228 -478 -506 -660 -660 -36 -30 -67 -57
-70 -60 -5 -6 -116 -97 -150 -123 -8 -7 -44 -35 -80 -63 -367 -285 -860 -579
-1335 -793 -252 -114 -691 -288 -701 -278 -3 3 140 189 259 339 12 15 31 39
41 53 11 14 27 35 35 45 9 10 40 49 68 87 29 37 101 131 161 208 59 77 143
187 187 245 43 58 81 107 85 110 3 3 160 212 349 465 189 253 357 477 372 497
16 20 29 40 29 43 0 4 7 13 15 22 15 15 53 66 269 368 63 88 119 165 123 170
8 9 158 220 227 319 16 22 75 107 131 187 57 80 129 183 160 230 32 46 83 120
114 164 177 255 781 1165 826 1247 9 17 185 295 261 413 80 125 494 812 494
820 0 2 23 40 50 84 28 44 50 83 50 85 0 2 17 33 38 67 21 35 52 89 69 119 16
30 39 71 50 90 56 96 133 233 133 235 0 1 34 62 75 135 41 73 75 134 75 136 0
2 22 43 49 91 26 49 73 135 103 193 31 58 70 132 88 165 53 97 399 786 477
950 145 304 331 710 404 884 23 53 54 124 70 159 16 35 29 66 29 69 0 3 11 29
24 57 13 28 49 112 79 186 50 121 73 179 138 343 10 26 18 47 16 47 -1 0 -39
-39 -85 -87z"/>
</g>
</svg>
